<svg xmlns="http://www.w3.org/2000/svg" width="20.286" height="25.88" viewBox="0 0 20.286 25.88">
  <g id="ごみ箱のフリーアイコン_1_" data-name="ごみ箱のフリーアイコン (1)" transform="translate(-55.332)">
    <path id="パス_67" data-name="パス 67" d="M74.731,3.525a9.688,9.688,0,0,1-2.191-.6,20.751,20.751,0,0,0-4.084-.774l-.138-.975A1.33,1.33,0,0,0,67.024,0h-3.1A1.331,1.331,0,0,0,62.63,1.171l-.138.975a20.749,20.749,0,0,0-4.083.774,9.686,9.686,0,0,1-2.191.6,1.239,1.239,0,0,0-.886,1.206v.844H75.618V4.732A1.239,1.239,0,0,0,74.731,3.525Z" transform="translate(0)" fill="#fff"/>
    <path id="パス_68" data-name="パス 68" d="M64.248,154.06a2.62,2.62,0,0,0,2.61,2.389h11.7a2.62,2.62,0,0,0,2.61-2.389l1.3-16.539H62.952Zm12.81-12.881a.77.77,0,1,1,1.538.093l-.733,12.105a.77.77,0,0,1-1.538-.093Zm-5.119.046a.77.77,0,1,1,1.541,0v12.105a.77.77,0,0,1-1.541,0Zm-4.393-.769a.77.77,0,0,1,.816.723l.733,12.105a.77.77,0,0,1-1.538.093l-.733-12.105A.77.77,0,0,1,67.546,140.457Z" transform="translate(-7.235 -130.57)" fill="#fff"/>
  </g>
</svg>
