<svg xmlns="http://www.w3.org/2000/svg" width="35.769" height="35.769" viewBox="0 0 35.769 35.769">
  <path id="パス_48" data-name="パス 48" d="M35.094,21.469l-2.725-2.152a1.8,1.8,0,0,1-.675-1.422v-.018a1.8,1.8,0,0,1,.675-1.425L35.094,14.3a1.777,1.777,0,0,0,.541-2.075l-1.2-2.89a1.777,1.777,0,0,0-1.849-1.085l-3.449.405a1.8,1.8,0,0,1-1.485-.53l-.012-.012a1.8,1.8,0,0,1-.528-1.483l.405-3.449a1.777,1.777,0,0,0-1.085-1.849l-2.89-1.2a1.777,1.777,0,0,0-2.075.54L19.317,3.4a1.8,1.8,0,0,1-1.422.675h-.018A1.8,1.8,0,0,1,16.453,3.4L14.3.677a1.777,1.777,0,0,0-2.075-.54l-2.89,1.2A1.777,1.777,0,0,0,8.251,3.182l.405,3.449a1.8,1.8,0,0,1-.53,1.485l-.012.012a1.8,1.8,0,0,1-1.483.528L3.182,8.251A1.777,1.777,0,0,0,1.333,9.336l-1.2,2.89A1.777,1.777,0,0,0,.677,14.3L3.4,16.453a1.8,1.8,0,0,1,.675,1.422v.018A1.8,1.8,0,0,1,3.4,19.317L.677,21.469a1.777,1.777,0,0,0-.54,2.075l1.2,2.89a1.777,1.777,0,0,0,1.849,1.085l3.449-.405a1.8,1.8,0,0,1,1.485.53l.012.012a1.8,1.8,0,0,1,.528,1.483l-.405,3.449a1.777,1.777,0,0,0,1.085,1.849l2.89,1.2a1.777,1.777,0,0,0,2.075-.54l2.152-2.725a1.8,1.8,0,0,1,1.422-.675h.018a1.8,1.8,0,0,1,1.425.675l2.152,2.725a1.777,1.777,0,0,0,2.075.54l2.89-1.2a1.777,1.777,0,0,0,1.085-1.849l-.405-3.449a1.8,1.8,0,0,1,.53-1.485l.012-.012a1.8,1.8,0,0,1,1.483-.528l3.449.405a1.777,1.777,0,0,0,1.849-1.085l1.2-2.89A1.777,1.777,0,0,0,35.094,21.469ZM19.652,23.034a5.433,5.433,0,1,1,2.94-7.1A5.433,5.433,0,0,1,19.652,23.034Z" transform="translate(-0.001 -0.001)" fill="#fff"/>
</svg>
