<svg xmlns="http://www.w3.org/2000/svg" width="29" height="37" viewBox="0 0 29 37">
  <g id="人物のアイコン素材_その2" data-name="人物のアイコン素材 その2" transform="translate(-48.372)">
    <path id="パス_11" data-name="パス 11" d="M151.383,12.265c.39,4.216,3,7,6.707,7s6.316-2.784,6.706-7l.553-4.555a7.273,7.273,0,1,0-14.519,0Z" transform="translate(-95.217)" fill="#909090"/>
    <path id="パス_12" data-name="パス 12" d="M77.343,313.336l-.267-1.76a4.632,4.632,0,0,0-2.408-3.423l-5.62-2.941a1.37,1.37,0,0,1-.439-.386,7.235,7.235,0,0,1-11.474,0,1.37,1.37,0,0,1-.439.386l-5.62,2.941a4.632,4.632,0,0,0-2.408,3.423l-.267,1.76a2.331,2.331,0,0,0,.574,2.011c.727.615,3.413,4.452,13.9,4.452s13.17-3.837,13.9-4.452A2.331,2.331,0,0,0,77.343,313.336Z" transform="translate(0 -282.798)" fill="#909090"/>
  </g>
</svg>
