<svg xmlns="http://www.w3.org/2000/svg" width="35" height="37" viewBox="0 0 35 37">
  <g id="積み上げられたポイントアイコン" transform="translate(-11.53)">
    <path id="パス_5" data-name="パス 5" d="M184.516,187.149a8.884,8.884,0,1,1-8.883,8.884,8.894,8.894,0,0,1,8.883-8.884m0-2.961a11.845,11.845,0,1,0,11.845,11.845A11.845,11.845,0,0,0,184.516,184.188Z" transform="translate(-149.83 -170.878)" fill="#909090"/>
    <path id="パス_6" data-name="パス 6" d="M300.2,293.406h-2.521a.727.727,0,0,0-.728.727v7.434a.729.729,0,0,0,.728.729h.366a.73.73,0,0,0,.728-.729v-2.092H300.2a3.061,3.061,0,1,0,0-6.069Zm0,4.471h-1.427V295H300.2a1.45,1.45,0,1,1,0,2.875Z" transform="translate(-265.037 -272.203)" fill="#909090"/>
    <path id="パス_7" data-name="パス 7" d="M21.132,0c-5.3,0-9.6,2.093-9.6,4.677v2.5c0,2.583,4.3,4.677,9.6,4.677s9.6-2.093,9.6-4.677v-2.5C30.733,2.093,26.435,0,21.132,0Zm0,1.942c4.676,0,7.658,1.8,7.658,2.735s-2.982,2.735-7.658,2.735-7.658-1.8-7.658-2.735S16.456,1.942,21.132,1.942Z" transform="translate(-0.001)" fill="#909090"/>
    <path id="パス_8" data-name="パス 8" d="M21.13,165.732A17.871,17.871,0,0,0,26,165.086a13.564,13.564,0,0,0-3.293,4.377c-.51.041-1.037.065-1.575.065-5.3,0-9.6-2.1-9.6-4.679v-2.936a.094.094,0,0,1,.082-.095.061.061,0,0,1,.065.029c-.011,0,0,.034.064.194C12.673,164.151,16.522,165.732,21.13,165.732Z" transform="translate(0 -150.122)" fill="#909090"/>
    <path id="パス_9" data-name="パス 9" d="M21.4,271a12.329,12.329,0,0,0,.112,1.694c-.124.007-.248.007-.378.007-5.3,0-9.6-2.091-9.6-4.672v-2.945a.1.1,0,0,1,.082-.088.083.083,0,0,1,.081.045c-.021-.029-.046-.045.049.181.93,2.107,4.78,3.69,9.388,3.69.142,0,.29,0,.431-.014A13.055,13.055,0,0,0,21.4,271Z" transform="translate(-0.002 -245.843)" fill="#909090"/>
    <path id="パス_10" data-name="パス 10" d="M24.66,375.547a18.368,18.368,0,0,1-3.529.325c-5.3,0-9.6-2.089-9.6-4.677v-2.938a.088.088,0,0,1,.082-.088.07.07,0,0,1,.082.047c-.023-.029-.053-.059.047.172.93,2.114,4.78,3.695,9.388,3.695.456,0,.911-.018,1.349-.047A13.5,13.5,0,0,0,24.66,375.547Z" transform="translate(-0.001 -341.562)" fill="#909090"/>
  </g>
</svg>
