<svg id="Free_Clock_icon_part_2無料の時計のアイコン_2" data-name="Free Clock icon part 2無料の時計のアイコン 2" xmlns="http://www.w3.org/2000/svg" width="33.805" height="33.805" viewBox="0 0 33.805 33.805">
  <path id="パス_2" data-name="パス 2" d="M16.9,0a16.9,16.9,0,1,0,16.9,16.9A16.922,16.922,0,0,0,16.9,0Zm0,29.781A12.878,12.878,0,1,1,29.781,16.9,12.893,12.893,0,0,1,16.9,29.781Z" fill="#909090"/>
  <path id="パス_3" data-name="パス 3" d="M161.265,115.758a1.531,1.531,0,0,0-1.531,1.531v6.933l-4.889,4.889a1.532,1.532,0,0,0,2.166,2.166l5.786-5.786v-8.2A1.531,1.531,0,0,0,161.265,115.758Z" transform="translate(-144.202 -108.115)" fill="#909090"/>
</svg>
