<svg xmlns="http://www.w3.org/2000/svg" width="58.876" height="399.846" viewBox="0 0 58.876 399.846">
  <g id="グループ_22" data-name="グループ 22" transform="translate(-334.089 -85.934)">
    <g id="鉛筆アイコン_6" data-name="鉛筆アイコン　6" transform="translate(334.072 85.934)">
      <path id="パス_4" data-name="パス 4" d="M57.528,8.174,50.72,1.368a4.666,4.666,0,0,0-6.6,0L39.707,5.78,6.6,38.891a8.573,8.573,0,0,0-2.006,3.162L.222,54.22a3.482,3.482,0,0,0,4.457,4.454L16.843,54.3A8.584,8.584,0,0,0,20.006,52.3L51.962,20.339v0l1.153-1.156,4.412-4.413,0,0A4.668,4.668,0,0,0,57.528,8.174ZM8.907,41.2,41.854,8.249l3.819,3.819L12.4,45.344l-3.8-3.8C8.7,41.427,8.8,41.309,8.907,41.2Zm6.833,10.03L7.988,54.015,4.881,50.908l2.786-7.75c.02-.057.047-.11.069-.166L15.9,51.16C15.849,51.182,15.8,51.209,15.74,51.229ZM17.7,49.988c-.11.109-.228.21-.347.31l-3.8-3.8L46.827,13.222l3.817,3.818ZM55.219,12.464l-3.257,3.259-.163.163L43.008,7.1l3.42-3.421a1.407,1.407,0,0,1,1.984,0l6.807,6.805a1.4,1.4,0,0,1,0,1.986Z" transform="translate(0 0)" fill="#cee1f4"/>
    </g>
    <g id="iconfinder_bulb_3883231" transform="matrix(0.985, 0.174, -0.174, 0.985, 202.322, 370.965)">
      <g id="グループ_1" data-name="グループ 1" transform="translate(171.976 29.882)">
        <path id="パス_18" data-name="パス 18" d="M391.759,112.425a1.613,1.613,0,0,1-1.389-.789,10.2,10.2,0,0,0-8.758-4.981,1.613,1.613,0,1,1,0-3.227,13.426,13.426,0,0,1,11.532,6.559,1.614,1.614,0,0,1-1.385,2.438Z" transform="translate(-379.999 -103.428)" fill="#cee1f4"/>
      </g>
      <g id="グループ_2" data-name="グループ 2" transform="translate(163.439 72.424)">
        <path id="パス_19" data-name="パス 19" d="M284.336,642.521a10.161,10.161,0,0,1-10.15-10.15,1.613,1.613,0,0,1,1.613-1.613h6.833a1.613,1.613,0,0,1,0,3.227H277.6a6.923,6.923,0,0,0,13.656-1.614,1.613,1.613,0,0,1,3.227,0A10.162,10.162,0,0,1,284.336,642.521Z" transform="translate(-274.186 -630.758)" fill="#cee1f4"/>
      </g>
      <g id="グループ_3" data-name="グループ 3" transform="translate(175.181 72.424)">
        <path id="パス_20" data-name="パス 20" d="M421.872,633.985h-.536a1.613,1.613,0,1,1,0-3.227h.536a1.613,1.613,0,1,1,0,3.227Z" transform="translate(-419.722 -630.758)" fill="#cee1f4"/>
      </g>
      <g id="グループ_4" data-name="グループ 4" transform="translate(153.721 23.428)">
        <path id="パス_21" data-name="パス 21" d="M182.126,69.389a1.613,1.613,0,0,1-1.613-1.614c0-4.705,1.947-9.813,4.844-12.711a16.641,16.641,0,1,0-23.535,0,18.73,18.73,0,0,1,4.771,11.1h9.041l3.18-19.876-1.828.831a1.613,1.613,0,0,1-1.644-.185L173.59,45.6l-1.751,1.332a1.614,1.614,0,0,1-1.644.184l-1.828-.831L170.88,62a1.614,1.614,0,0,1-3.186.51L164.7,43.828a1.613,1.613,0,0,1,2.261-1.724l3.686,1.676,1.961-1.491a1.614,1.614,0,0,1,1.953,0l1.961,1.491,3.686-1.676a1.613,1.613,0,0,1,2.261,1.724L178.6,68.03a1.614,1.614,0,0,1-1.593,1.359H165.053a1.613,1.613,0,0,1-1.613-1.614c0-3.784-1.64-8.17-3.9-10.429a19.869,19.869,0,1,1,28.1,0c-2.259,2.259-3.9,6.645-3.9,10.429A1.613,1.613,0,0,1,182.126,69.389Z" transform="translate(-153.721 -23.428)" fill="#cee1f4"/>
      </g>
    </g>
  </g>
</svg>
