<svg xmlns="http://www.w3.org/2000/svg" width="87.692" height="695.408" viewBox="0 0 87.692 695.408">
  <g id="グループ_123" data-name="グループ 123" transform="translate(-16.765 -25.098)">
    <g id="ノートのアイコン素材6" transform="translate(6.584 302.417) rotate(-9)">
      <path id="パス_13" data-name="パス 13" d="M60.776,70.2a8.706,8.706,0,0,0-2.695-2.184L58,67.971l-.087-.036a39.9,39.9,0,0,0-3.983-1.419,30.367,30.367,0,0,0-8.408-1.423A32.458,32.458,0,0,0,31,68.539a32.451,32.451,0,0,0-14.522-3.446,30.365,30.365,0,0,0-8.406,1.423,39.689,39.689,0,0,0-3.983,1.419L4,67.971l-.083.047A8.737,8.737,0,0,0,1.229,70.2,5.668,5.668,0,0,0,0,73.749V105.92a4.6,4.6,0,0,0,4.606,4.6A4.653,4.653,0,0,0,6.03,110.3l.1-.032.093-.042.006,0a30.939,30.939,0,0,1,3.442-1.217,25.211,25.211,0,0,1,6.814-1.111,28.721,28.721,0,0,1,9.21,1.6,28.492,28.492,0,0,1,2.734,1.1c.314.148.556.269.712.35l.17.089.038.021h0v0l.182.1.2.062a2.355,2.355,0,0,0,1.275.051,2.45,2.45,0,0,0,.526.064,2.476,2.476,0,0,0,.747-.115l.2-.062.178-.1a29.052,29.052,0,0,1,12.87-3.16,25.51,25.51,0,0,1,7,1.166c.988.3,1.817.592,2.392.814.288.108.511.2.659.261l.167.07.038.017,0,0,.095.042.1.032a4.672,4.672,0,0,0,1.425.225,4.6,4.6,0,0,0,2.7-.878h0a4.609,4.609,0,0,0,1.9-3.726V73.749A5.672,5.672,0,0,0,60.776,70.2ZM29.038,106.57a33.071,33.071,0,0,0-12.557-2.6,29.271,29.271,0,0,0-8.129,1.33,36.077,36.077,0,0,0-3.569,1.268l-.178.03a.681.681,0,0,1-.4-.129.67.67,0,0,1-.28-.547V73.749a1.7,1.7,0,0,1,.4-1.124A4.825,4.825,0,0,1,5.755,71.5a37.809,37.809,0,0,1,3.652-1.277,26.318,26.318,0,0,1,7.073-1.2,29.032,29.032,0,0,1,9.53,1.646,26.171,26.171,0,0,1,2.717,1.124c.119.057.214.106.31.153Zm29.039-.651a.673.673,0,0,1-.28.547h0a.669.669,0,0,1-.4.129l-.178-.03a36.11,36.11,0,0,0-3.569-1.268,29.285,29.285,0,0,0-8.131-1.33,33.069,33.069,0,0,0-12.555,2.6V71.943a28.806,28.806,0,0,1,12.555-2.922A26.622,26.622,0,0,1,52.8,70.278c1.058.32,1.96.64,2.589.878.314.119.56.218.727.284l.134.057a4.82,4.82,0,0,1,1.434,1.128,1.707,1.707,0,0,1,.4,1.124V105.92Z" transform="translate(0 0)" fill="#cee1f4"/>
    </g>
    <g id="学校のアイコン2" transform="translate(51.763 611.503) rotate(8)">
      <path id="パス_14" data-name="パス 14" d="M41.446,71.523V56.172H17.069V71.523L0,71.559V101.85H24.112V90.835H34.4V101.85H58.518V71.559ZM12.022,95.982H7.479v-5h4.543Zm0-12.792H7.479v-5h4.543Zm19.508,0H26.986v-5h4.545ZM29.259,70.407a5.661,5.661,0,1,1,5.661-5.663A5.669,5.669,0,0,1,29.259,70.407Zm21.78,25.575H46.492v-5h4.547Zm0-12.792H46.492v-5h4.547Z" fill="#cee1f4"/>
      <path id="パス_15" data-name="パス 15" d="M222.149,92.969a4.367,4.367,0,1,0,4.368,4.366A4.372,4.372,0,0,0,222.149,92.969Zm.868,4.647a.72.72,0,0,1-.479.673.76.76,0,0,1-.414.125h-2.239a.753.753,0,1,1,0-1.505h1.7V94.532a.718.718,0,0,1,1.436,0v3.084Z" transform="translate(-192.89 -32.591)" fill="#cee1f4"/>
    </g>
    <g id="グループ_5" data-name="グループ 5" transform="translate(-329.872 35.112) rotate(-71)">
      <g id="iconfinder_5_5400993" transform="translate(87 368)">
        <path id="パス_22" data-name="パス 22" d="M163.225,211.945l.441-42.249-48.287-.506Zm-9.749-18.829-15.718-14.047,15.863.167Z" transform="translate(-115.38 -169.19)" fill="none" stroke="#cee1f4" stroke-linecap="round" stroke-linejoin="round" stroke-width="3"/>
        <line id="線_1" data-name="線 1" x1="0.044" y2="4.198" transform="translate(38.578 0.403)" fill="none" stroke="#cee1f4" stroke-linecap="round" stroke-linejoin="round" stroke-width="3"/>
        <line id="線_2" data-name="線 2" x1="0.026" y2="2.64" transform="translate(32.558 0.341)" fill="none" stroke="#cee1f4" stroke-linecap="round" stroke-linejoin="round" stroke-width="3"/>
        <line id="線_3" data-name="線 3" x1="0.026" y2="2.64" transform="translate(21.713 0.228)" fill="none" stroke="#cee1f4" stroke-linecap="round" stroke-linejoin="round" stroke-width="3"/>
        <line id="線_4" data-name="線 4" x1="0.044" y2="4.196" transform="translate(26.505 0.278)" fill="none" stroke="#cee1f4" stroke-linecap="round" stroke-linejoin="round" stroke-width="3"/>
        <line id="線_5" data-name="線 5" x1="4.196" y1="0.044" transform="translate(43.823 26.084)" fill="none" stroke="#cee1f4" stroke-linecap="round" stroke-linejoin="round" stroke-width="3"/>
        <line id="線_6" data-name="線 6" x1="2.642" y1="0.028" transform="translate(45.441 20.065)" fill="none" stroke="#cee1f4" stroke-linecap="round" stroke-linejoin="round" stroke-width="3"/>
        <line id="線_7" data-name="線 7" x1="2.64" y1="0.028" transform="translate(45.556 9.219)" fill="none" stroke="#cee1f4" stroke-linecap="round" stroke-linejoin="round" stroke-width="3"/>
        <line id="線_8" data-name="線 8" x1="4.196" y1="0.044" transform="translate(43.95 14.013)" fill="none" stroke="#cee1f4" stroke-linecap="round" stroke-linejoin="round" stroke-width="3"/>
      </g>
    </g>
  </g>
</svg>
