<svg xmlns="http://www.w3.org/2000/svg" width="55.786" height="59.58" viewBox="0 0 55.786 59.58">
  <g id="ポイントの無料アイコン" transform="translate(-16.301)">
    <path id="パス_33" data-name="パス 33" d="M243.488,254.231c-.994.03-1.493.039-2.488.043-.111,0-.164.051-.165.146,0,1.376,0,2.063,0,3.439,0,.1.059.144.173.143,1.038-.007,1.557-.013,2.6-.044,1.585-.048,2.434-.843,2.369-1.973S245.007,254.185,243.488,254.231Z" transform="translate(-198.402 -224.645)" fill="#ffea4a"/>
    <path id="パス_34" data-name="パス 34" d="M331.549,10.319l-7.543-2a.526.526,0,0,1-.4-.4L321.616.378A.486.486,0,0,0,321.143,0a.492.492,0,0,0-.475.378L318.68,7.92a.533.533,0,0,1-.4.4l-7.542,2a.475.475,0,0,0,0,.93l7.542,2a.53.53,0,0,1,.4.4l1.988,7.542a.489.489,0,0,0,.475.377.483.483,0,0,0,.473-.377l1.991-7.542a.523.523,0,0,1,.4-.4l7.543-2a.475.475,0,0,0,0-.93Z" transform="translate(-259.839)" fill="#ffea4a"/>
    <path id="パス_35" data-name="パス 35" d="M67.924,197.475a17.633,17.633,0,0,0-5.623-4.111c-4.846-2.4-11.676-3.931-19.228-3.927A50.144,50.144,0,0,0,29.5,191.222a27,27,0,0,0-9.57,4.61,10.321,10.321,0,0,0-3.143,3.933,5.995,5.995,0,0,0,0,4.706,8.656,8.656,0,0,0,1.44,2.289,17.652,17.652,0,0,0,5.623,4.112c4.846,2.4,11.677,3.931,19.229,3.928a50.1,50.1,0,0,0,13.578-1.787,27.009,27.009,0,0,0,9.57-4.608,10.331,10.331,0,0,0,3.142-3.934,5.983,5.983,0,0,0,0-4.706A8.588,8.588,0,0,0,67.924,197.475Zm-22.324,6.8c-1.2.038-1.8.049-3,.055-.12,0-.181.051-.181.148,0,2.029-.005,3.044-.008,5.076,0,.144-.122.244-.313.243-1.981,0-2.972-.019-4.952-.1-.191-.008-.312-.109-.3-.255.37-6.349.551-9.52.921-15.863a.245.245,0,0,1,.281-.227c2.877.115,4.319.124,7.2.031,4.391-.144,6.915,1.808,7.279,4.965C52.878,201.461,50.545,204.12,45.6,204.278Zm18.74-1.855-3.423.907a.24.24,0,0,0-.182.183l-.9,3.421a.221.221,0,0,1-.215.171.223.223,0,0,1-.215-.171l-.9-3.421a.242.242,0,0,0-.182-.183l-3.422-.907a.216.216,0,0,1,0-.423l3.422-.908a.242.242,0,0,0,.182-.181l.9-3.423a.223.223,0,0,1,.215-.171.221.221,0,0,1,.215.171l.9,3.423a.241.241,0,0,0,.182.181l3.423.908a.216.216,0,0,1,0,.423Z" transform="translate(0 -167.393)" fill="#ffea4a"/>
    <path id="パス_36" data-name="パス 36" d="M17.741,82.146l5.389,1.428a.382.382,0,0,1,.288.286l1.42,5.389a.348.348,0,0,0,.679,0l1.421-5.389a.376.376,0,0,1,.287-.286l5.39-1.428a.343.343,0,0,0,.27-.336.339.339,0,0,0-.27-.332l-5.39-1.43a.376.376,0,0,1-.287-.284l-1.421-5.392a.349.349,0,0,0-.679,0l-1.42,5.392a.382.382,0,0,1-.288.284l-5.389,1.43a.336.336,0,0,0-.271.332A.341.341,0,0,0,17.741,82.146Z" transform="translate(-1.033 -65.482)" fill="#ffea4a"/>
    <path id="パス_37" data-name="パス 37" d="M16.3,361.4v4.854a6.094,6.094,0,0,0,.481,2.355,8.677,8.677,0,0,0,1.44,2.29,12.358,12.358,0,0,0,.9.931v-7.768q-.318-.238-.619-.48A15.145,15.145,0,0,1,16.3,361.4Z" transform="translate(-0.001 -319.344)" fill="#ffea4a"/>
    <path id="パス_38" data-name="パス 38" d="M59.893,405a23.535,23.535,0,0,0,2.471,1.409c.384.191.785.373,1.192.55V398.7a29.739,29.739,0,0,1-3.663-1.766Z" transform="translate(-38.519 -350.743)" fill="#ffea4a"/>
    <path id="パス_39" data-name="パス 39" d="M109.75,419.18v8.277h-.133a40.226,40.226,0,0,0,5.2,1.458V420.5c-1.2-.242-2.369-.52-3.486-.837Q110.526,419.435,109.75,419.18Z" transform="translate(-82.457 -370.401)" fill="#ffea4a"/>
    <path id="パス_40" data-name="パス 40" d="M173.719,442.378a52.639,52.639,0,0,0,7.327.659v-8.461a55.094,55.094,0,0,1-7.327-.621Z" transform="translate(-139.1 -383.458)" fill="#ffea4a"/>
    <path id="パス_41" data-name="パス 41" d="M256.066,442.742a52.454,52.454,0,0,0,7.609-.7v-8.41a55.6,55.6,0,0,1-7.609.664Z" transform="translate(-211.864 -383.168)" fill="#ffea4a"/>
    <path id="パス_42" data-name="パス 42" d="M340.821,428.121c.888-.194,1.755-.4,2.588-.642q1.293-.368,2.486-.8v-8.322a43.291,43.291,0,0,1-5.074,1.365v8.4Z" transform="translate(-286.756 -369.673)" fill="#ffea4a"/>
    <path id="パス_43" data-name="パス 43" d="M403.79,397.33v8.256a23.85,23.85,0,0,0,3.664-2.029v-8.039q-.839.495-1.754.952C405.089,396.771,404.449,397.057,403.79,397.33Z" transform="translate(-342.398 -349.492)" fill="#ffea4a"/>
    <path id="パス_44" data-name="パス 44" d="M453.5,363.959h.134v7.617a9.256,9.256,0,0,0,2.054-2.952,6.077,6.077,0,0,0,.482-2.355v-4.852c-.069.084-.137.169-.208.252A15.991,15.991,0,0,1,453.5,363.959Z" transform="translate(-386.321 -319.36)" fill="#ffea4a"/>
  </g>
</svg>
