<svg xmlns="http://www.w3.org/2000/svg" width="104" height="109" viewBox="0 0 104 109">
  <g id="写真登録" transform="translate(-155 -95)">
    <g id="グループ_6" data-name="グループ 6" transform="translate(155 95)">
      <g id="楕円形_2" data-name="楕円形 2" fill="#fff" stroke="#e2e2e2" stroke-width="2">
        <circle cx="52" cy="52" r="52" stroke="none"/>
        <circle cx="52" cy="52" r="51" fill="none"/>
      </g>
      <g id="人物のアイコン素材_その2_1_" data-name="人物のアイコン素材 その2 (1)" transform="translate(19.901 18.808)">
        <path id="パス_23" data-name="パス 23" d="M152.1,26.3c.873,9.039,6.719,15.008,15.009,15.008s14.135-5.97,15.008-15.008l1.238-9.765C184.118,6.936,176.289,0,167.1,0s-17.014,6.936-16.247,16.53Z" transform="translate(-134.762)" fill="#e2e2e2"/>
        <path id="パス_24" data-name="パス 24" d="M112.652,323.069l-.592-3.773a9.949,9.949,0,0,0-5.341-7.338l-12.468-6.3a3.01,3.01,0,0,1-.974-.827c-3.61,3.816-7.995,6.061-12.728,6.061s-9.119-2.245-12.728-6.061a3.01,3.01,0,0,1-.974.827l-12.468,6.3a9.949,9.949,0,0,0-5.341,7.338l-.593,3.773c-.211,1.347-.614,5.6.593,6.587,1.613,1.319,8.252,13.055,31.512,13.055s30.491-11.736,32.1-13.055C113.858,328.669,112.863,324.416,112.652,323.069Z" transform="translate(-48.205 -257.599)" fill="#e2e2e2"/>
      </g>
    </g>
    <g id="楕円形_3" data-name="楕円形 3" transform="translate(226 171)" fill="#fff" stroke="#e2e2e2" stroke-width="1.5">
      <circle cx="16.5" cy="16.5" r="16.5" stroke="none"/>
      <circle cx="16.5" cy="16.5" r="15.75" fill="none"/>
    </g>
    <g id="カメラのアイコン素材_6" data-name="カメラのアイコン素材 6" transform="translate(232.461 180.19)">
      <path id="パス_25" data-name="パス 25" d="M196.284,224.828a2.462,2.462,0,1,0,2.44,2.462A2.451,2.451,0,0,0,196.284,224.828Z" transform="translate(-186.234 -218.235)" fill="#e2e2e2"/>
      <path id="パス_26" data-name="パス 26" d="M18.8,59.986h-2.3a1.3,1.3,0,0,1-1.189-.777l-.689-1.543a1.305,1.305,0,0,0-1.19-.776H6.675a1.307,1.307,0,0,0-1.191.776L4.8,59.209a1.3,1.3,0,0,1-1.189.777H1.3A1.31,1.31,0,0,0,0,61.3v9.906a1.31,1.31,0,0,0,1.3,1.316H18.8a1.311,1.311,0,0,0,1.3-1.316V61.3A1.311,1.311,0,0,0,18.8,59.986ZM10.05,70.511a4.566,4.566,0,1,1,4.526-4.566A4.546,4.546,0,0,1,10.05,70.511Z" transform="translate(0 -56.89)" fill="#e2e2e2"/>
    </g>
  </g>
</svg>
